<svg width="31" height="31" xmlns="http://www.w3.org/2000/svg">
  <defs>
  <style type="text/css">@import url('http://fonts.googleapis.com/css?family=Open+Sans');</style>
  </defs>
 <g>
  <title>Edmunds Curves</title>
  <g stroke="white" stroke-width="1" id="svgg">
   <path fill-rule="evenodd" fill="#000000" d="m10.89364,1.54037c-6.587782,0.304414 -8.125841,1.134371 -8.820767,4.759893c-0.726077,3.787803 -0.691855,15.296416 0.056226,18.918036c0.797079,3.859061 2.954136,4.588848 13.561982,4.587953c10.380255,-0.000768 12.661278,-0.701898 13.523154,-4.156311c0.543902,-2.180149 0.800149,-7.206716 0.65162,-12.782813c-0.254264,-9.547803 -0.988145,-10.674178 -7.298443,-11.201193c-2.242708,-0.187356 -8.808741,-0.257974 -11.673773,-0.125565m8.347547,0.250682c7.859935,0.25484 9.264242,0.956738 9.917334,4.956972c0.566994,3.472388 0.614648,12.938058 0.086354,17.142855c-0.553241,4.403475 -1.817207,5.20727 -8.692387,5.527355c-6.362558,0.296226 -12.85164,0.006652 -15.12793,-0.675032c-2.954776,-0.884904 -3.579211,-3.164136 -3.58145,-13.071939c-0.002175,-9.640361 0.604669,-12.091982 3.227974,-13.041171c1.99887,-0.723262 7.568763,-1.053134 14.170105,-0.83904" id="path0"/>
  </g>
  <g  stroke="white" stroke-width="5" transform="matrix(0.08853286364590195,0,0,0.08592817844486529,-191.24351965879325,-168.4598082042643) "  id="svg_15">
   <path fill-rule="evenodd" fill="#000000" d="m2335.354144,1984.741245c-0.587,1.513 -2.591,12.2 -4.454,23.75c-16.062,99.595 -25.921,110.477 -112.429,124.086c-27.322,4.299 -37.147,6.28 -39.821,8.032l-2.545,1.668l2.157,1.746c2.202,1.783 11.644,3.697 41.709,8.454c84.847,13.425 94.802,24.552 110.949,124.014c3.646,22.459 4.699,26.5 6.904,26.5c3.546,0 3.867,-1.269 10.728,-42.303c14.124,-84.48 24.233,-94.209 113.419,-109.156c33.782,-5.662 37.5,-6.558 37.5,-9.041c0,-2.486 -3.892,-3.464 -34,-8.542c-92.614,-15.621 -103.018,-25.219 -116.483,-107.458c-4.234,-25.855 -6.262,-36.783 -7.657,-41.25c-1.296,-4.15 -4.458,-4.414 -5.977,-0.5m8.105,28.25c2.302,13.475 4.582,27.221 5.066,30.546c4.582,31.489 16.324,56.307 32.234,68.131c16.294,12.108 34.009,17.382 86.712,25.815c26.185,4.189 27.37,4.457 24.471,5.529c-1.097,0.406 -12.34,2.398 -24.983,4.427c-97.091,15.576 -106.966,25.08 -122.477,117.867c-2.741,16.398 -5.377,30.517 -5.857,31.375c-0.945,1.688 -1.863,-2.917 -7.216,-36.19c-13.74,-85.398 -26.926,-97.867 -118.938,-112.472c-36.091,-5.728 -35.871,-5.417 -7.133,-10.062c10.248,-1.656 22.908,-3.711 28.133,-4.566c67.108,-10.986 85.475,-30.477 96.965,-102.9c1.134,-7.15 3.181,-19.583 4.549,-27.629c1.367,-8.046 2.486,-14.999 2.486,-15.45c0,-0.452 0.405,-0.393 0.9,0.129c0.496,0.522 2.785,11.975 5.088,25.45" id="svg_16"/>
  </g>
 </g>
</svg>
